<svg xmlns="http://www.w3.org/2000/svg" version="1.1" xmlns:xlink="http://www.w3.org/1999/xlink" xmlns:svgjs="http://svgjs.dev/svgjs" width="1440" height="560" preserveAspectRatio="none" viewBox="0 0 1440 560"><g mask="url(&quot;#SvgjsMask1006&quot;)" fill="none"><rect width="1440" height="560" x="0" y="0" fill="rgba(14, 42, 71, 1)"></rect><path d="M 0,168 C 72,161.6 216,130.8 360,136 C 504,141.2 576,206.4 720,194 C 864,181.6 936,79.2 1080,74 C 1224,68.8 1368,149.2 1440,168L1440 560L0 560z" fill="rgba(34, 100, 171, 1)"></path><path d="M 0,392 C 57.6,410.4 172.8,487.4 288,484 C 403.2,480.6 460.8,385.2 576,375 C 691.2,364.8 748.8,441 864,433 C 979.2,425 1036.8,320.4 1152,335 C 1267.2,349.6 1382.4,471.8 1440,506L1440 560L0 560z" fill="rgba(24, 74, 126, 1)"></path></g><defs><mask id="SvgjsMask1006"><rect width="1440" height="560" fill="#ffffff"></rect></mask></defs></svg>